<svg viewBox="82.632 42.509 301.779 301.779" height="68" xmlns="http://www.w3.org/2000/svg">
  <g transform="matrix(-0.340857, -0.340857, 0.340857, -0.340857, 218.734024, 350.195801)" style="">
    <g>
      <path d="M 328.839 131.169 C 318.444 120.773 318.444 103.919 328.839 93.523 C 339.235 83.127 356.09 83.127 366.486 93.523 C 376.881 103.919 376.881 120.773 366.486 131.169 C 356.09 141.565 339.235 141.565 328.839 131.169 Z M 429.634 209.175 L 425.63 64.097 C 425.183 47.875 412.126 34.818 395.903 34.369 L 250.823 30.365 C 242.348 30.128 234.33 33.335 228.355 39.31 L -4.078 271.744 C -16.002 283.668 -16.002 303.069 -4.078 314.993 L 145.005 464.075 C 156.956 476.028 176.301 476.031 188.255 464.076 L 420.689 231.643 C 426.604 225.727 429.865 217.537 429.634 209.175 Z" style=""></path>
    </g>
  </g>
</svg>
